<svg xmlns="http://www.w3.org/2000/svg" width="800" height="1100">
  <rect width="100%" height="100%" fill="#f5f0e8" />
  <g fill="none" stroke="#2a2a2a" stroke-width="0.5" opacity="0.3">
    <line x1="80" y1="120" x2="720" y2="120" />
    <line x1="80" y1="144" x2="720" y2="144" />
    <line x1="80" y1="168" x2="720" y2="168" />
    <line x1="80" y1="192" x2="720" y2="192" />
    <line x1="80" y1="216" x2="720" y2="216" />
    <line x1="80" y1="240" x2="720" y2="240" />
    <line x1="80" y1="264" x2="720" y2="264" />
    <line x1="80" y1="288" x2="720" y2="288" />
    <line x1="80" y1="312" x2="720" y2="312" />
    <line x1="80" y1="336" x2="720" y2="336" />
    <line x1="80" y1="360" x2="720" y2="360" />
    <line x1="80" y1="384" x2="720" y2="384" />
    <line x1="80" y1="408" x2="720" y2="408" />
    <line x1="80" y1="432" x2="720" y2="432" />
    <line x1="80" y1="456" x2="720" y2="456" />
    <line x1="80" y1="480" x2="720" y2="480" />
    <line x1="80" y1="504" x2="720" y2="504" />
    <line x1="80" y1="528" x2="720" y2="528" />
    <line x1="80" y1="552" x2="720" y2="552" />
    <line x1="80" y1="576" x2="720" y2="576" />
    <line x1="80" y1="600" x2="720" y2="600" />
    <line x1="80" y1="624" x2="720" y2="624" />
    <line x1="80" y1="648" x2="720" y2="648" />
    <line x1="80" y1="672" x2="720" y2="672" />
    <line x1="80" y1="696" x2="720" y2="696" />
    <line x1="80" y1="720" x2="720" y2="720" />
    <line x1="80" y1="744" x2="720" y2="744" />
    <line x1="80" y1="768" x2="720" y2="768" />
    <line x1="80" y1="792" x2="720" y2="792" />
    <line x1="80" y1="816" x2="720" y2="816" />
    <line x1="80" y1="840" x2="720" y2="840" />
    <line x1="80" y1="864" x2="720" y2="864" />
    <line x1="80" y1="888" x2="720" y2="888" />
    <line x1="80" y1="912" x2="720" y2="912" />
    <line x1="80" y1="936" x2="720" y2="936" />
    <line x1="80" y1="960" x2="720" y2="960" />
    <line x1="80" y1="984" x2="720" y2="984" />
    <line x1="80" y1="1008" x2="720" y2="1008" />
    <line x1="80" y1="1032" x2="720" y2="1032" />
    <line x1="80" y1="1056" x2="720" y2="1056" />
  </g>
  <rect
    x="60"
    y="60"
    width="680"
    height="980"
    fill="none"
    stroke="#8b7355"
    stroke-width="2"
  />
  <text
    x="400"
    y="100"
    text-anchor="middle"
    font-family="serif"
    font-size="24"
    fill="#2a2a2a"
  >Riksarkivet — Test Document</text>
  <text
    x="400"
    y="550"
    text-anchor="middle"
    font-family="serif"
    font-size="16"
    fill="#666"
  >
    Sample page for PixiJS viewer testing
  </text>
  <text
    x="400"
    y="580"
    text-anchor="middle"
    font-family="serif"
    font-size="14"
    fill="#888"
  >
    Scroll to zoom · Drag to pan · Double-click to fit
  </text>
</svg>
